<?xml version="1.0" encoding="UTF-8"?>
<svg width="16px" height="16px" viewBox="0 0 16 16" version="1.1" xmlns="http://www.w3.org/2000/svg" xmlns:xlink="http://www.w3.org/1999/xlink">
    <!-- Generator: Sketch 48.2 (47327) - http://www.bohemiancoding.com/sketch -->
    <title>download</title>
    <desc>Created with Sketch.</desc>
    <defs></defs>
    <g id="Symbols" stroke="none" stroke-width="1" fill="none" fill-rule="evenodd">
        <g id="download" fill="#FFFFFF">
            <path d="M12.0716522,8.94191304 L8.24556522,12.768 C8.176,12.8354783 8.08834783,12.8695652 8,12.8695652 C7.90330435,12.8695652 7.81495652,12.829913 7.75304348,12.768 L3.92765217,8.94191304 C3.792,8.80626087 3.792,8.58573913 3.92765217,8.45008696 C4.06330435,8.31513043 4.28382609,8.31513043 4.41947826,8.45008696 L7.65217391,11.6827826 L7.65217391,3.47826087 C7.65217391,3.28695652 7.80730435,3.13043478 8,3.13043478 C8.19130435,3.13043478 8.34782609,3.28695652 8.34782609,3.47826087 L8.34782609,11.6827826 L11.5798261,8.45008696 C11.7154783,8.31513043 11.936,8.31513043 12.0716522,8.45008696 C12.2073043,8.58573913 12.2073043,8.80626087 12.0716522,8.94191304 M8,0 C3.58817391,0 0,3.58956522 0,8 C0,12.4118261 3.58817391,16 8,16 C12.4097391,16 16,12.4118261 16,8 C16,3.58956522 12.4097391,0 8,0" id="Fill-192"></path>
        </g>
    </g>
</svg>